<?xml version="1.0" encoding="utf-8"?>
<!-- Generator: Adobe Illustrator 16.0.0, SVG Export Plug-In . SVG Version: 6.00 Build 0)  -->
<!DOCTYPE svg PUBLIC "-//W3C//DTD SVG 1.1//EN" "http://www.w3.org/Graphics/SVG/1.1/DTD/svg11.dtd">
<svg version="1.1" id="Layer_1" xmlns="http://www.w3.org/2000/svg" xmlns:xlink="http://www.w3.org/1999/xlink" x="0px" y="0px"
	 width="1575.475px" height="555.873px" viewBox="0 0 1575.475 555.873" enable-background="new 0 0 1575.475 555.873"
	 xml:space="preserve">
<g>
	<path fill="#FFFFFF" d="M758.057,381.358c-13.72-14.376-20.58-35.476-20.58-63.285V203.146h9.655v114.646
		c0,25.352,5.862,44.41,17.597,57.18c11.726,12.77,28.658,19.156,50.789,19.156c21.951,0,38.833-6.387,50.661-19.156
		c11.819-12.77,17.733-31.828,17.733-57.18V203.146h9.365v114.927c0,27.81-6.809,48.909-20.427,63.285
		c-13.626,14.381-32.739,21.564-57.333,21.564S771.768,395.739,758.057,381.358z"/>
	<path fill="#FFFFFF" d="M1068.371,315.947c7.941,8.419,11.913,19.629,11.913,33.626c0,17.026-6.051,29.987-18.16,38.88
		c-12.108,8.892-30.175,13.336-54.206,13.336h-86.264V203.146h80.589c21.006,0,37.461,4.35,49.383,13.051
		c11.922,8.705,17.878,21.193,17.878,37.461c0,11.917-3.221,21.756-9.655,29.51c-6.425,7.76-15.321,13.247-26.672,16.46
		C1048.686,302.091,1060.42,307.531,1068.371,315.947z M931.31,211.66v85.13h71.224c18.347,0,32.535-3.639,42.565-10.925
		c10.029-7.281,15.04-17.827,15.04-31.641c0-13.809-5.011-24.355-15.04-31.641c-10.03-7.281-24.219-10.924-42.565-10.924H931.31z
		 M1055.025,382.492c10.405-7.188,15.612-18.254,15.612-33.2c0-15.135-5.207-26.294-15.612-33.485
		c-10.396-7.188-25.922-10.784-46.536-10.784h-77.18v88.254h77.18C1029.104,393.276,1044.63,389.685,1055.025,382.492z"/>
	<path fill="#FFFFFF" d="M1108.95,203.146h9.646v198.643h-9.646V203.146z"/>
	<path fill="#FFFFFF" d="M1359.238,416.263c-5.871,7.188-12.68,12.625-20.435,16.315c-7.755,3.689-16.268,5.534-25.539,5.534
		c-10.218,0-20.341-2.795-30.362-8.372c-10.03-5.582-20.997-14.521-32.919-26.817h-1.985c-19.302,0-36.754-4.347-52.357-13.051
		c-15.611-8.701-27.856-20.717-36.753-36.042c-8.897-15.322-13.337-32.442-13.337-51.364c0-18.914,4.439-36.038,13.337-51.364
		c8.896-15.322,21.142-27.332,36.753-36.037c15.604-8.701,33.056-13.057,52.357-13.057c19.293,0,36.796,4.355,52.501,13.057
		c15.697,8.705,27.994,20.715,36.891,36.037c8.888,15.326,13.336,32.45,13.336,51.364c0,17.409-3.792,33.251-11.351,47.533
		c-7.567,14.286-18.023,26.017-31.359,35.19c-13.337,9.178-28.429,14.806-45.267,16.885c17.409,18.539,34.342,27.811,50.797,27.811
		c15.51,0,28.948-6.625,40.299-19.868L1359.238,416.263z M1167.409,349.007c8.129,14.001,19.241,25.019,33.336,33.06
		c14.095,8.044,29.843,12.062,47.253,12.062c17.4,0,33.2-4.018,47.389-12.062c14.188-8.041,25.352-19.059,33.489-33.06
		c8.13-13.997,12.203-29.515,12.203-46.541s-4.073-32.536-12.203-46.537c-8.138-14.001-19.301-25.019-33.489-33.063
		c-14.188-8.035-29.988-12.059-47.389-12.059c-17.41,0-33.158,4.023-47.253,12.059c-14.095,8.045-25.207,19.062-33.336,33.063
		c-8.147,14.001-12.203,29.511-12.203,46.537S1159.262,335.01,1167.409,349.007z"/>
	<path fill="#FFFFFF" d="M1396.555,381.358c-13.72-14.376-20.571-35.476-20.571-63.285V203.146h9.646v114.646
		c0,25.352,5.863,44.41,17.598,57.18c11.726,12.77,28.658,19.156,50.797,19.156c21.943,0,38.824-6.387,50.652-19.156
		c11.819-12.77,17.733-31.828,17.733-57.18V203.146h9.365v114.927c0,27.81-6.809,48.909-20.435,63.285
		c-13.617,14.381-32.731,21.564-57.316,21.564C1429.423,402.923,1410.266,395.739,1396.555,381.358z"/>
	<path fill="#FFFFFF" d="M1565.828,203.146h9.646v198.643h-9.646V203.146z"/>
</g>
<g>
	<g>
		<path fill="#FFFFFF" d="M401.538,0.008c-59.447,0-136.346,0-194.088,0v41.484h-41.483v41.49H82.983v82.992h41.483v-41.496h41.5
			v41.496h41.483v41.484h-41.483v-41.484h-39.728c6.834,50.742,24.917,101.854,69.689,152.06
			c66.213,74.309,201.212,64.032,203.684,41.168c1.994-18.653-35.928-29.578-74.104-114.944
			c-38.177-85.344,13.243-139.744,13.243-139.744c-26.724,108.688,87.329,206.099,123.12,239.896
			c75.979,71.786,59.634,111.548,27.081,128.071c-24.968,12.663-48.539-8.096-48.539-8.096c21.458,9.152,43.869,1.729,46.426-31.666
			c2.472-32.024-50.312-53.107-85.301-5.173c-16.413,22.472-22.293,113.771,57.452,126.128
			c70.474,10.908,171.608-14.257,187.561-178.553C683.604-6.732,425.313,0.008,401.538,0.008z M248.95,124.479h-41.5V82.982h41.5
			V124.479z M495.173,119.025c37.513,0,69.912,20.148,86.887,83.738C518.863,224.484,495.957,145.098,495.173,119.025z"/>
		<path fill="#FFFFFF" d="M165.967,41.492V0.008c-17.01,0-82.983,0-82.983,0v41.484H165.967z"/>
		<rect x="41.483" y="41.492" fill="#FFFFFF" width="41.5" height="41.49"/>
		<rect y="0.008" fill="#FFFFFF" width="41.483" height="41.484"/>
	</g>
</g>
</svg>
